<svg width="53" height="63" viewBox="0 0 53 63" fill="none" xmlns="http://www.w3.org/2000/svg">
<g clip-path="url(#clip0_184_1711)">
<path fill-rule="evenodd" clip-rule="evenodd" d="M26.5006 11.319C29.8575 11.319 32.5789 14.0477 32.5789 17.4138C32.5789 20.7798 29.8575 23.5086 26.5006 23.5086C23.1436 23.5086 20.4222 20.7798 20.4222 17.4138C20.4222 14.0477 23.1436 11.319 26.5006 11.319Z" fill="#07DA83"/>
<path fill-rule="evenodd" clip-rule="evenodd" d="M23.3797 6.59928L26.5005 12.0196L32.3031 1.9425L33.5748 2.67523L26.4991 14.9647L22.1075 7.33788L23.3797 6.59928Z" fill="#07DA83"/>
<path fill-rule="evenodd" clip-rule="evenodd" d="M22.7438 4.66028C24.0155 4.66028 25.0461 5.69403 25.0461 6.96908C25.0461 8.24414 24.0155 9.27789 22.7438 9.27789C21.4721 9.27789 20.4414 8.24414 20.4414 6.96908C20.4414 5.69403 21.4721 4.66028 22.7438 4.66028Z" fill="#07DA83"/>
<path d="M32.9388 4.61773C34.2104 4.61773 35.2412 3.58405 35.2412 2.30893C35.2412 1.03381 34.2104 0.00012207 32.9388 0.00012207C31.6673 0.00012207 30.6365 1.03381 30.6365 2.30893C30.6365 3.58405 31.6673 4.61773 32.9388 4.61773Z" fill="#07DA83"/>
<path fill-rule="evenodd" clip-rule="evenodd" d="M47.091 22.7263V44.5628C47.091 46.7355 45.169 47.9886 43.6651 49.2372L28.1701 62.0979C27.8586 62.3563 27.4518 62.4082 27.0861 62.2354C26.7199 62.0627 26.5004 61.7156 26.5004 61.3103V53.8323C26.5004 52.8984 25.7567 52.1329 24.8258 52.1079C15.1187 51.8495 5.90979 49.3341 5.90979 44.5628V22.7263C5.90979 12.6365 47.0915 12.6365 47.0915 22.7263H47.091Z" fill="#07DA83"/>
<path fill-rule="evenodd" clip-rule="evenodd" d="M41.7464 23.4073C41.43 23.1787 40.9738 22.9423 40.7362 22.8282C39.621 22.2937 38.3576 21.9188 37.1583 21.631C33.748 20.8131 30.0009 20.5184 26.5002 20.5184C22.9995 20.5184 19.2524 20.8131 15.8421 21.631C14.6428 21.9188 13.3794 22.2937 12.2641 22.8282C12.0265 22.9423 11.5704 23.1782 11.254 23.4073V43.883C11.5704 44.1116 12.0265 44.348 12.2641 44.4621C13.3794 44.9966 14.6428 45.3715 15.8421 45.6593C19.2524 46.4772 22.9995 46.7719 26.5002 46.7719C30.0009 46.7719 33.748 46.4772 37.1583 45.6593C38.3576 45.3715 39.621 44.9966 40.7362 44.4621C40.9738 44.348 41.43 44.1121 41.7464 43.883V23.4073Z" fill="white"/>
<path fill-rule="evenodd" clip-rule="evenodd" d="M19.317 29.1204C20.9319 29.1204 22.2407 31.1463 22.2407 33.6455C22.2407 36.1447 20.9314 38.1706 19.317 38.1706C17.7025 38.1706 16.3932 36.1447 16.3932 33.6455C16.3932 31.1463 17.702 29.1204 19.317 29.1204Z" fill="#181D25"/>
<path fill-rule="evenodd" clip-rule="evenodd" d="M33.6837 29.1204C35.2986 29.1204 36.6074 31.1463 36.6074 33.6455C36.6074 36.1447 35.2986 38.1706 33.6837 38.1706C32.0687 38.1706 30.7599 36.1447 30.7599 33.6455C30.7599 31.1463 32.0687 29.1204 33.6837 29.1204Z" fill="#181D25"/>
<path fill-rule="evenodd" clip-rule="evenodd" d="M3.71779 25.8647H4.67413V41.4248H3.71779C1.6731 41.4248 0 39.7474 0 37.6971V29.592C0 27.5417 1.6731 25.8643 3.71779 25.8643V25.8647Z" fill="#07DA83"/>
<path fill-rule="evenodd" clip-rule="evenodd" d="M49.2821 25.8647H48.3258V41.4248H49.2821C51.3268 41.4248 52.9999 39.7474 52.9999 37.6971V29.592C52.9999 27.5417 51.3268 25.8643 49.2821 25.8643V25.8647Z" fill="#07DA83"/>
<path d="M21 43C22.746 41.4908 27.3905 39.3778 32 43" stroke="#181D25" stroke-linecap="round"/>
<path d="M7 29.5C7 27.0147 5.95533 25 4.66667 25C2.08934 25 0 29.0295 0 34C0 38.9705 2.08934 43 4.66667 43C5.95533 43 7 40.9853 7 38.5V29.5Z" fill="#181D25"/>
<path d="M1.75 38V27.75C1.75 16.5662 15.3162 14 26.5 14C37.6839 14 51.5 16.5662 51.5 27.75V39.5C51.5 44.0187 51.5 41.5 51.5 44.5C50.5975 46.5052 49 47.875 46.5 49C44.738 49.7929 44 50 39.5 51H31.5" stroke="#181D25" stroke-width="3.375" stroke-linecap="round" stroke-linejoin="round"/>
<path d="M45 29.5C45 27.0147 46.0446 25 47.3333 25C49.9106 25 52 29.0295 52 34C52 38.9705 49.9106 43 47.3333 43C46.0446 43 45 40.9853 45 38.5V29.5Z" fill="#181D25"/>
</g>
<defs>
<clipPath id="clip0_184_1711">
<rect width="53" height="62.3368" fill="white"/>
</clipPath>
</defs>
</svg>
