<svg width="20" height="20" viewBox="0 0 20 20" fill="none" xmlns="http://www.w3.org/2000/svg">
<path d="M1.99976 2.88889C1.99976 1.84568 2.84544 1 3.88864 1H6.9857C7.39222 1 7.75313 1.26013 7.88168 1.64578L9.29625 5.88959C9.44491 6.33547 9.24308 6.82279 8.82271 7.03299L6.69082 8.09892C7.73183 10.4078 9.59196 12.268 11.9008 13.3089L12.9667 11.177C13.177 10.7567 13.6643 10.5548 14.1102 10.7035L18.3539 12.1181C18.7397 12.2466 18.9998 12.6075 18.9998 13.0141V16.1111C18.9998 17.1543 18.1541 18 17.1109 18H16.1664C8.34239 18 1.99976 11.6574 1.99976 3.83333V2.88889Z" stroke="#606E80" stroke-width="1.5" stroke-linecap="round" stroke-linejoin="round"/>
</svg>
