<svg width="168" height="17" viewBox="0 0 168 17" fill="none" xmlns="http://www.w3.org/2000/svg">
<g filter="url(#filter0_i_125_1615)">
<path d="M0 2.25C0 1.00736 1.00736 0 2.25 0H2.75C3.7165 0 4.5 0.783502 4.5 1.75C4.5 2.7165 5.2835 3.5 6.25 3.5H161.25C162.217 3.5 163 2.7165 163 1.75C163 0.783502 163.784 0 164.75 0H165.5C166.881 0 168 1.11929 168 2.5V14.5C168 15.8807 166.881 17 165.5 17H164.75C163.784 17 163 16.2165 163 15.25C163 14.2835 162.216 13.5 161.25 13.5H6.25C5.2835 13.5 4.5 14.2835 4.5 15.25C4.5 16.2165 3.7165 17 2.75 17H2.25C1.00736 17 0 15.9926 0 14.75V2.25Z" fill="#07DA83"/>
</g>
<defs>
<filter id="filter0_i_125_1615" x="0" y="0" width="168" height="18" filterUnits="userSpaceOnUse" color-interpolation-filters="sRGB">
<feFlood flood-opacity="0" result="BackgroundImageFix"/>
<feBlend mode="normal" in="SourceGraphic" in2="BackgroundImageFix" result="shape"/>
<feColorMatrix in="SourceAlpha" type="matrix" values="0 0 0 0 0 0 0 0 0 0 0 0 0 0 0 0 0 0 127 0" result="hardAlpha"/>
<feOffset dy="1"/>
<feGaussianBlur stdDeviation="1.8"/>
<feComposite in2="hardAlpha" operator="arithmetic" k2="-1" k3="1"/>
<feColorMatrix type="matrix" values="0 0 0 0 0.0196 0 0 0 0 0.653333 0 0 0 0 0.392031 0 0 0 1 0"/>
<feBlend mode="normal" in2="shape" result="effect1_innerShadow_125_1615"/>
</filter>
</defs>
</svg>
