<svg width="40" height="40" viewBox="0 0 40 40" fill="none" xmlns="http://www.w3.org/2000/svg">
<rect width="40" height="40" rx="20" fill="#5A616D" fill-opacity="0.08"/>
<path d="M22.7873 20.4433C22.6071 21.3015 21.6482 21.918 19.7306 23.1507C17.6449 24.4916 16.6021 25.1621 15.7574 24.9037C15.4713 24.8162 15.2078 24.6625 14.9865 24.4537C14.3333 23.8376 14.3333 22.5584 14.3333 20C14.3333 17.4416 14.3333 16.1624 14.9865 15.5463C15.2078 15.3376 15.4713 15.1837 15.7574 15.0963C16.6021 14.838 17.6449 15.5084 19.7306 16.8492C21.6482 18.0821 22.6071 18.6985 22.7873 19.5567C22.8486 19.8488 22.8486 20.1512 22.7873 20.4433Z" stroke="#929FB1" stroke-width="1.5" stroke-linejoin="round"/>
<path d="M25.6667 15.0417V24.9583" stroke="#929FB1" stroke-width="1.5" stroke-linecap="round"/>
</svg>
