<svg width="40" height="40" viewBox="0 0 40 40" fill="none" xmlns="http://www.w3.org/2000/svg">
<rect width="40" height="40" rx="20" fill="#5A616D" fill-opacity="0.08"/>
<path d="M17.2127 20.4433C17.3929 21.3015 18.3518 21.918 20.2694 23.1507C22.3551 24.4916 23.398 25.1621 24.2426 24.9037C24.5287 24.8162 24.7922 24.6625 25.0135 24.4537C25.6667 23.8376 25.6667 22.5584 25.6667 20C25.6667 17.4416 25.6667 16.1624 25.0135 15.5463C24.7922 15.3376 24.5287 15.1837 24.2426 15.0963C23.398 14.838 22.3551 15.5084 20.2694 16.8492C18.3518 18.0821 17.3929 18.6985 17.2127 19.5567C17.1514 19.8488 17.1514 20.1512 17.2127 20.4433Z" stroke="#929FB1" stroke-width="1.5" stroke-linejoin="round"/>
<path d="M14.3333 14.3333V25.6667" stroke="#929FB1" stroke-width="1.5" stroke-linecap="round"/>
</svg>
