<svg width="50" height="50" viewBox="0 0 50 50" fill="none" xmlns="http://www.w3.org/2000/svg">
<rect width="50" height="50" rx="25" fill="#E1E5EA"/>
<path d="M15 31C15 29.4596 15 28.6893 15.3467 28.1235C15.5407 27.8069 15.8069 27.5407 16.1235 27.3467C16.6893 27 17.4596 27 19 27C20.5404 27 21.3107 27 21.8765 27.3467C22.1931 27.5407 22.4593 27.8069 22.6533 28.1235C23 28.6893 23 29.4596 23 31C23 32.5404 23 33.3107 22.6533 33.8765C22.4593 34.1931 22.1931 34.4593 21.8765 34.6533C21.3107 35 20.5404 35 19 35C17.4596 35 16.6893 35 16.1235 34.6533C15.8069 34.4593 15.5407 34.1931 15.3467 33.8765C15 33.3107 15 32.5404 15 31Z" fill="#606E80"/>
<path d="M27 31C27 29.4596 27 28.6893 27.3467 28.1235C27.5407 27.8069 27.8069 27.5407 28.1235 27.3467C28.6893 27 29.4596 27 31 27C32.5404 27 33.3107 27 33.8765 27.3467C34.1931 27.5407 34.4593 27.8069 34.6533 28.1235C35 28.6893 35 29.4596 35 31C35 32.5404 35 33.3107 34.6533 33.8765C34.4593 34.1931 34.1931 34.4593 33.8765 34.6533C33.3107 35 32.5404 35 31 35C29.4596 35 28.6893 35 28.1235 34.6533C27.8069 34.4593 27.5407 34.1931 27.3467 33.8765C27 33.3107 27 32.5404 27 31Z" fill="#606E80"/>
<path d="M15 19C15 17.4596 15 16.6893 15.3467 16.1235C15.5407 15.8069 15.8069 15.5407 16.1235 15.3467C16.6893 15 17.4596 15 19 15C20.5404 15 21.3107 15 21.8765 15.3467C22.1931 15.5407 22.4593 15.8069 22.6533 16.1235C23 16.6893 23 17.4596 23 19C23 20.5404 23 21.3107 22.6533 21.8765C22.4593 22.1931 22.1931 22.4593 21.8765 22.6533C21.3107 23 20.5404 23 19 23C17.4596 23 16.6893 23 16.1235 22.6533C15.8069 22.4593 15.5407 22.1931 15.3467 21.8765C15 21.3107 15 20.5404 15 19Z" fill="#606E80"/>
<path d="M27 19C27 17.4596 27 16.6893 27.3467 16.1235C27.5407 15.8069 27.8069 15.5407 28.1235 15.3467C28.6893 15 29.4596 15 31 15C32.5404 15 33.3107 15 33.8765 15.3467C34.1931 15.5407 34.4593 15.8069 34.6533 16.1235C35 16.6893 35 17.4596 35 19C35 20.5404 35 21.3107 34.6533 21.8765C34.4593 22.1931 34.1931 22.4593 33.8765 22.6533C33.3107 23 32.5404 23 31 23C29.4596 23 28.6893 23 28.1235 22.6533C27.8069 22.4593 27.5407 22.1931 27.3467 21.8765C27 21.3107 27 20.5404 27 19Z" fill="#606E80"/>
</svg>
